<svg width="24" height="24" viewBox="0 0 24 24" fill="none" xmlns="http://www.w3.org/2000/svg">
<path d="M12.0625 16.917C12.2828 16.917 12.4693 16.8399 12.622 16.6857C12.7748 16.5316 12.8512 16.3433 12.8512 16.121V11.8045C12.8512 11.5887 12.7736 11.4034 12.6185 11.2487C12.4633 11.0942 12.2774 11.017 12.0607 11.017C11.8377 11.017 11.6498 11.0942 11.497 11.2487C11.3443 11.4034 11.268 11.5887 11.268 11.8045V16.121C11.268 16.3433 11.3453 16.5316 11.5 16.6857C11.6546 16.8399 11.8421 16.917 12.0625 16.917ZM11.9992 9.16699C12.2394 9.16699 12.4415 9.08733 12.6055 8.92799C12.7693 8.76883 12.8512 8.57158 12.8512 8.33624C12.8512 8.08508 12.7701 7.87741 12.6077 7.71324C12.4454 7.54908 12.2442 7.46699 12.0042 7.46699C11.7577 7.46699 11.554 7.54816 11.393 7.71049C11.2318 7.87299 11.1512 8.07841 11.1512 8.32674C11.1512 8.56574 11.2325 8.76549 11.395 8.92599C11.5575 9.08666 11.7589 9.16699 11.9992 9.16699ZM12.0067 21.8335C10.6494 21.8335 9.37347 21.5744 8.17897 21.0562C6.98447 20.5379 5.94305 19.8337 5.05472 18.9437C4.16622 18.0536 3.46297 17.0118 2.94497 15.8185C2.42697 14.625 2.16797 13.3498 2.16797 11.993C2.16797 10.6347 2.42705 9.35791 2.94522 8.16274C3.46355 6.96741 4.16772 5.92691 5.05772 5.04124C5.94789 4.15558 6.98964 3.45508 8.18297 2.93974C9.37647 2.42458 10.6516 2.16699 12.0085 2.16699C13.3668 2.16699 14.6436 2.42541 15.839 2.94224C17.0343 3.45891 18.0748 4.16024 18.9605 5.04624C19.846 5.93224 20.5464 6.97283 21.0617 8.16799C21.5769 9.36316 21.8345 10.6387 21.8345 11.9947C21.8345 13.3521 21.5767 14.628 21.0612 15.8225C20.5457 17.017 19.8444 18.0574 18.9572 18.9437C18.0699 19.8301 17.0286 20.5333 15.8335 21.0535C14.6383 21.5735 13.3627 21.8335 12.0067 21.8335ZM12.009 20.2502C14.2955 20.2502 16.2408 19.4456 17.845 17.8362C19.4491 16.2269 20.2512 14.279 20.2512 11.9925C20.2512 9.70599 19.4504 7.76066 17.8487 6.15649C16.2469 4.55233 14.2979 3.75024 12.0017 3.75024C9.72089 3.75024 7.77555 4.55108 6.16572 6.15274C4.55605 7.75458 3.75122 9.70358 3.75122 11.9997C3.75122 14.2806 4.55589 16.2259 6.16522 17.8357C7.77455 19.4454 9.72247 20.2502 12.009 20.2502Z" fill="white"/>
</svg>
