<svg width="32" height="32" viewBox="0 0 32 32" fill="none" xmlns="http://www.w3.org/2000/svg">
<path d="M26.3356 27.778C23.7652 27.778 21.1596 27.1697 18.5189 25.953C15.8783 24.7363 13.4486 23.0095 11.2299 20.7727C8.99305 18.554 7.26628 16.1262 6.04961 13.4893C4.83294 10.8522 4.22461 8.24266 4.22461 5.66066C4.22461 5.25377 4.36217 4.91232 4.63728 4.63632C4.91239 4.36055 5.25628 4.22266 5.66894 4.22266H10.4246C10.7357 4.22266 11.0014 4.32721 11.2216 4.53632C11.4421 4.74566 11.5912 5.01143 11.6689 5.33366L12.5563 9.59232C12.5943 9.89032 12.5827 10.1643 12.5216 10.4143C12.4605 10.6643 12.3449 10.8761 12.1749 11.0497L8.94128 14.3337C9.47817 15.2597 10.0581 16.1274 10.6809 16.937C11.3041 17.7468 11.9908 18.5179 12.7413 19.2503C13.5042 20.0354 14.3125 20.7582 15.1663 21.4187C16.0198 22.0789 16.9207 22.6728 17.8689 23.2003L21.0476 19.978C21.2507 19.7595 21.4831 19.6095 21.7446 19.528C22.0062 19.4467 22.2698 19.4263 22.5356 19.467L26.6436 20.3323C26.9716 20.411 27.2431 20.5801 27.4579 20.8397C27.6726 21.0994 27.7799 21.39 27.7799 21.7113V26.3337C27.7799 26.7463 27.6424 27.0902 27.3673 27.3653C27.0922 27.6404 26.7483 27.778 26.3356 27.778ZM7.89661 12.378L10.4299 9.82266L9.71328 6.33366H6.36328C6.41528 7.24477 6.56161 8.19666 6.80228 9.18932C7.04294 10.1818 7.40772 11.2447 7.89661 12.378ZM19.8523 24.2003C20.7301 24.6077 21.6757 24.9373 22.6893 25.1893C23.7028 25.4411 24.6961 25.5929 25.6689 25.6447V22.2893L22.3799 21.5947L19.8523 24.2003Z" fill="#858585"/>
</svg>
