<svg width="26" height="24" viewBox="0 0 26 24" fill="none" xmlns="http://www.w3.org/2000/svg">
<path d="M4.718 20L2.04867 22.669C1.66933 23.0486 1.233 23.1339 0.739667 22.925C0.246556 22.7159 0 22.3426 0 21.805V2.41033C0 1.73678 0.233333 1.16667 0.7 0.7C1.16667 0.233333 1.73678 0 2.41033 0H22.923C23.5966 0 24.1667 0.233333 24.6333 0.7C25.1 1.16667 25.3333 1.73678 25.3333 2.41033V17.5897C25.3333 18.2632 25.1 18.8333 24.6333 19.3C24.1667 19.7667 23.5966 20 22.923 20H4.718ZM6 15H14C14.2833 15 14.5208 14.9041 14.7123 14.7123C14.9041 14.5206 15 14.283 15 13.9997C15 13.7161 14.9041 13.4787 14.7123 13.2873C14.5208 13.0958 14.2833 13 14 13H6C5.71667 13 5.47922 13.0959 5.28767 13.2877C5.09589 13.4794 5 13.717 5 14.0003C5 14.2839 5.09589 14.5213 5.28767 14.7127C5.47922 14.9042 5.71667 15 6 15ZM6 11H19.3333C19.6167 11 19.8541 10.9041 20.0457 10.7123C20.2374 10.5206 20.3333 10.283 20.3333 9.99967C20.3333 9.71611 20.2374 9.47867 20.0457 9.28733C19.8541 9.09578 19.6167 9 19.3333 9H6C5.71667 9 5.47922 9.09589 5.28767 9.28767C5.09589 9.47944 5 9.717 5 10.0003C5 10.2839 5.09589 10.5213 5.28767 10.7127C5.47922 10.9042 5.71667 11 6 11ZM6 7H19.3333C19.6167 7 19.8541 6.90411 20.0457 6.71233C20.2374 6.52056 20.3333 6.283 20.3333 5.99967C20.3333 5.71611 20.2374 5.47867 20.0457 5.28733C19.8541 5.09578 19.6167 5 19.3333 5H6C5.71667 5 5.47922 5.09589 5.28767 5.28767C5.09589 5.47944 5 5.717 5 6.00033C5 6.28389 5.09589 6.52133 5.28767 6.71267C5.47922 6.90422 5.71667 7 6 7Z" fill="#6852D6"/>
</svg>
