<svg width="32" height="32" viewBox="0 0 32 32" fill="none" xmlns="http://www.w3.org/2000/svg">
<path d="M1.61523 23.1752C1.61523 22.4187 1.80657 21.734 2.18923 21.1209C2.5719 20.5077 3.10501 20.0454 3.78857 19.7339C5.31746 19.0445 6.73935 18.5396 8.05423 18.2192C9.3689 17.899 10.7133 17.7389 12.0876 17.7389C13.4616 17.7389 14.8008 17.899 16.1052 18.2192C17.4097 18.5396 18.8257 19.0442 20.3532 19.7329C21.0383 20.0444 21.5765 20.5069 21.9676 21.1202C22.3587 21.7333 22.5542 22.4182 22.5542 23.1749V24.2665C22.5542 24.8472 22.3475 25.3442 21.9339 25.7575C21.5206 26.1709 21.0236 26.3775 20.4429 26.3775H3.72623C3.1389 26.3775 2.64023 26.1709 2.23023 25.7575C1.82023 25.3442 1.61523 24.8472 1.61523 24.2665V23.1752ZM28.2819 26.3775H24.1486C24.2892 26.0369 24.4106 25.695 24.5126 25.3519C24.6143 25.0087 24.6652 24.647 24.6652 24.2665V23.1775C24.6652 21.9235 24.3745 20.8637 23.7929 19.9982C23.2116 19.1326 22.332 18.4091 21.1542 17.8275C22.5209 17.998 23.8051 18.236 25.0069 18.5415C26.2087 18.8471 27.2262 19.2165 28.0596 19.6499C28.7893 20.061 29.3607 20.5591 29.7736 21.1442C30.1865 21.7295 30.3929 22.3842 30.3929 23.1082V24.2619C30.3929 24.8476 30.1862 25.3467 29.7729 25.7592C29.3596 26.1714 28.8626 26.3775 28.2819 26.3775ZM12.0876 15.9999C10.6469 15.9999 9.45712 15.5304 8.51823 14.5915C7.57912 13.6524 7.10957 12.4626 7.10957 11.0222C7.10957 9.58152 7.57912 8.39175 8.51823 7.45286C9.45712 6.51375 10.6469 6.04419 12.0876 6.04419C13.528 6.04419 14.7178 6.51375 15.6569 7.45286C16.5958 8.39175 17.0652 9.58152 17.0652 11.0222C17.0652 12.4626 16.5958 13.6524 15.6569 14.5915C14.7178 15.5304 13.528 15.9999 12.0876 15.9999ZM24.1319 11.0095C24.1319 12.4406 23.6625 13.6274 22.7236 14.5699C21.7845 15.5121 20.5947 15.9832 19.1542 15.9832C18.9282 15.9832 18.6632 15.9645 18.3592 15.9272C18.0552 15.8901 17.7869 15.8324 17.5542 15.7542C18.1065 15.1673 18.526 14.4716 18.8129 13.6672C19.0996 12.8627 19.2429 11.98 19.2429 11.0189C19.2429 10.0575 19.0995 9.18563 18.8126 8.40319C18.5255 7.62052 18.106 6.9083 17.5542 6.26652C17.7949 6.19163 18.0597 6.13585 18.3486 6.09919C18.6375 6.06252 18.906 6.04419 19.1542 6.04419C20.5947 6.04419 21.7845 6.51508 22.7236 7.45686C23.6625 8.39886 24.1319 9.58308 24.1319 11.0095ZM3.72623 24.2665H20.4429V23.1805C20.4429 22.8559 20.3503 22.5492 20.1652 22.2605C19.9801 21.9719 19.7523 21.7609 19.4819 21.6275C18.0115 20.9573 16.7225 20.4934 15.6149 20.2359C14.5073 19.9785 13.3333 19.8499 12.0929 19.8499C10.8489 19.8499 9.66568 19.9785 8.54323 20.2359C7.42079 20.4934 6.12812 20.9573 4.66523 21.6275C4.38746 21.7609 4.16157 21.9726 3.98757 22.2629C3.81335 22.5529 3.72623 22.8577 3.72623 23.1775V24.2665ZM12.0852 13.8889C12.9052 13.8889 13.5883 13.6164 14.1346 13.0715C14.681 12.5264 14.9542 11.844 14.9542 11.0242C14.9542 10.2042 14.6818 9.52108 14.1369 8.97486C13.5918 8.42863 12.9093 8.15552 12.0896 8.15552C11.2696 8.15552 10.5865 8.42797 10.0402 8.97286C9.49401 9.51774 9.2209 10.2001 9.2209 11.0199C9.2209 11.8399 9.49335 12.523 10.0382 13.0692C10.5831 13.6156 11.2655 13.8889 12.0852 13.8889Z" fill="#858585"/>
</svg>
