<svg width="24" height="24" viewBox="0 0 24 24" fill="none" xmlns="http://www.w3.org/2000/svg">
<path d="M11.9994 20.1665C11.6037 20.1665 11.2663 20.0261 10.9871 19.7453C10.7079 19.4646 10.5684 19.1264 10.5684 18.7308C10.5684 18.3351 10.7087 17.9977 10.9894 17.7185C11.2702 17.4393 11.6084 17.2998 12.0039 17.2998C12.3995 17.2998 12.7369 17.4402 13.0161 17.721C13.2953 18.0017 13.4349 18.3398 13.4349 18.7355C13.4349 19.1312 13.2945 19.4686 13.0139 19.7478C12.733 20.0269 12.3949 20.1665 11.9994 20.1665ZM11.9994 13.433C11.6037 13.433 11.2663 13.2927 10.9871 13.012C10.7079 12.7312 10.5684 12.393 10.5684 11.9975C10.5684 11.6018 10.7087 11.2644 10.9894 10.9853C11.2702 10.7061 11.6084 10.5665 12.0039 10.5665C12.3995 10.5665 12.7369 10.7068 13.0161 10.9875C13.2953 11.2683 13.4349 11.6065 13.4349 12.002C13.4349 12.3977 13.2945 12.7351 13.0139 13.0143C12.733 13.2934 12.3949 13.433 11.9994 13.433ZM11.9994 6.69976C11.6037 6.69976 11.2663 6.55934 10.9871 6.27851C10.7079 5.99784 10.5684 5.65967 10.5684 5.26401C10.5684 4.86834 10.7087 4.53092 10.9894 4.25176C11.2702 3.97259 11.6084 3.83301 12.0039 3.83301C12.3995 3.83301 12.7369 3.97342 13.0161 4.25426C13.2953 4.53492 13.4349 4.87309 13.4349 5.26876C13.4349 5.66442 13.2945 6.00184 13.0139 6.28101C12.733 6.56017 12.3949 6.69976 11.9994 6.69976Z" fill="white"/>
</svg>
