<svg width="32" height="32" viewBox="0 0 32 32" fill="none" xmlns="http://www.w3.org/2000/svg">
<path d="M15.9983 16C14.5498 16 13.3544 15.5289 12.4119 14.5867C11.4693 13.6444 10.9979 12.449 10.9979 11.0003C10.9979 9.55189 11.469 8.35644 12.4113 7.414C13.3535 6.47133 14.5489 6 15.9976 6C17.446 6 18.6415 6.47111 19.5839 7.41333C20.5266 8.35556 20.9979 9.551 20.9979 10.9997C20.9979 12.4481 20.5268 13.6436 19.5846 14.586C18.6424 15.5287 17.4469 16 15.9983 16ZM5.53125 24.2667V23.177C5.53125 22.3774 5.73214 21.6804 6.13392 21.086C6.53592 20.4916 7.06236 20.0393 7.71325 19.7293C9.14747 19.0727 10.5432 18.5768 11.9006 18.2417C13.2581 17.9066 14.6239 17.739 15.9979 17.739C17.3719 17.739 18.7339 17.9084 20.0839 18.2473C21.4339 18.5862 22.8267 19.0829 24.2623 19.7373C24.93 20.0469 25.464 20.4968 25.8643 21.087C26.2645 21.6772 26.4646 22.3738 26.4646 23.1767V24.272C26.4646 24.8484 26.2579 25.3436 25.8446 25.7573C25.431 26.1709 24.934 26.3777 24.3536 26.3777H7.64225C7.06181 26.3777 6.56481 26.171 6.15125 25.7577C5.73792 25.3443 5.53125 24.8473 5.53125 24.2667ZM7.64225 24.2667H24.3536V23.1807C24.3536 22.856 24.2609 22.5512 24.0756 22.2663C23.8905 21.9814 23.6627 21.7686 23.3923 21.6277C22.0478 20.9797 20.7895 20.5213 19.6173 20.2527C18.4448 19.9842 17.2394 19.85 16.0009 19.85C14.7545 19.85 13.5405 19.9842 12.3589 20.2527C11.1776 20.5213 9.92203 20.9797 8.59225 21.6277C8.31447 21.7686 8.08669 21.982 7.90892 22.268C7.73114 22.554 7.64225 22.859 7.64225 23.183V24.2667ZM15.9979 13.889C16.8201 13.889 17.5071 13.613 18.0589 13.061C18.6109 12.5092 18.8869 11.8222 18.8869 11C18.8869 10.1778 18.6109 9.49078 18.0589 8.939C17.5071 8.387 16.8201 8.111 15.9979 8.111C15.1757 8.111 14.4887 8.387 13.9369 8.939C13.3849 9.49078 13.1089 10.1778 13.1089 11C13.1089 11.8222 13.3849 12.5092 13.9369 13.061C14.4887 13.613 15.1757 13.889 15.9979 13.889Z" fill="#858585"/>
</svg>
