<svg width="24" height="24" viewBox="0 0 24 24" fill="none" xmlns="http://www.w3.org/2000/svg">
<path d="M15.5492 10.767C15.9284 10.767 16.2513 10.6342 16.518 10.3687C16.7846 10.1034 16.918 9.78124 16.918 9.40224C16.918 9.02308 16.7853 8.70016 16.52 8.43349C16.2545 8.16683 15.9322 8.03349 15.5532 8.03349C15.1741 8.03349 14.8511 8.16616 14.5845 8.43149C14.3178 8.69699 14.1845 9.01924 14.1845 9.39824C14.1845 9.77741 14.3172 10.1003 14.5827 10.367C14.8481 10.6337 15.1702 10.767 15.5492 10.767ZM8.44922 10.767C8.82839 10.767 9.1513 10.6342 9.41797 10.3687C9.68464 10.1034 9.81797 9.78124 9.81797 9.40224C9.81797 9.02308 9.68522 8.70016 9.41972 8.43349C9.15439 8.16683 8.83222 8.03349 8.45322 8.03349C8.07405 8.03349 7.75114 8.16616 7.48447 8.43149C7.2178 8.69699 7.08447 9.01924 7.08447 9.39824C7.08447 9.77741 7.21714 10.1003 7.48247 10.367C7.74797 10.6337 8.07022 10.767 8.44922 10.767ZM12.0022 21.8335C10.6421 21.8335 9.36339 21.5751 8.16622 21.0582C6.96905 20.5416 5.92764 19.8402 5.04197 18.9542C4.15647 18.0682 3.45605 17.0277 2.94072 15.8325C2.42555 14.6373 2.16797 13.3602 2.16797 12.0012C2.16797 10.6411 2.42639 9.36241 2.94322 8.16524C3.45989 6.96808 4.16122 5.92666 5.04722 5.04099C5.93322 4.15549 6.9738 3.45508 8.16897 2.93974C9.36414 2.42458 10.6412 2.16699 12.0002 2.16699C13.3604 2.16699 14.6391 2.42541 15.8362 2.94224C17.0334 3.45891 18.0748 4.16024 18.9605 5.04624C19.846 5.93224 20.5464 6.97283 21.0617 8.16799C21.5769 9.36316 21.8345 10.6402 21.8345 11.9992C21.8345 13.3594 21.5761 14.6381 21.0592 15.8352C20.5426 17.0324 19.8412 18.0738 18.9552 18.9595C18.0692 19.845 17.0286 20.5454 15.8335 21.0607C14.6383 21.5759 13.3612 21.8335 12.0022 21.8335ZM12.0012 20.2502C14.3026 20.2502 16.2529 19.4506 17.8522 17.8512C19.4516 16.2519 20.2512 14.3016 20.2512 12.0002C20.2512 9.69891 19.4516 7.74858 17.8522 6.14924C16.2529 4.54991 14.3026 3.75024 12.0012 3.75024C9.69989 3.75024 7.74955 4.54991 6.15022 6.14924C4.55089 7.74858 3.75122 9.69891 3.75122 12.0002C3.75122 14.3016 4.55089 16.2519 6.15022 17.8512C7.74955 19.4506 9.69989 20.2502 12.0012 20.2502ZM11.991 17.3835C12.931 17.3835 13.7981 17.1669 14.5925 16.7337C15.3868 16.3007 16.033 15.7018 16.531 14.937C16.6306 14.7458 16.6245 14.5586 16.5125 14.3752C16.4005 14.1919 16.2325 14.1002 16.0085 14.1002H7.99822C7.76689 14.1002 7.59639 14.1919 7.48672 14.3752C7.37689 14.5586 7.3748 14.7438 7.48047 14.931C7.97214 15.6993 8.61589 16.3002 9.41172 16.7335C10.2076 17.1668 11.0673 17.3835 11.991 17.3835Z" fill="#858585"/>
</svg>
