<svg width="24" height="24" viewBox="0 0 24 24" fill="none" xmlns="http://www.w3.org/2000/svg">
<path fill-rule="evenodd" clip-rule="evenodd" d="M6.42541 3.53222C4.94956 3.84977 3.82566 4.99102 3.52746 6.47507C3.45601 6.83062 3.44886 7.46402 3.46296 12.1751C3.47766 17.0968 3.48521 17.4965 3.56836 17.7751C3.88646 18.8406 4.62136 19.7199 5.57396 20.1747C6.31606 20.5291 6.19271 20.518 9.60841 20.5371C12.2688 20.552 12.7376 20.5436 13.0283 20.4762C13.7571 20.3072 13.7108 20.3471 17.0291 17.0288C20.3474 13.7105 20.3075 13.7568 20.4766 13.0279C20.544 12.7373 20.5523 12.2685 20.5375 9.60807C20.5183 6.18992 20.5292 6.30967 20.1734 5.57507C19.7047 4.60712 18.8447 3.88727 17.7754 3.56802C17.4962 3.48462 17.1045 3.47767 12.1254 3.46767C7.52016 3.45842 6.72671 3.46737 6.42541 3.53222ZM6.68181 5.00557C6.57531 5.03057 6.33286 5.13267 6.14306 5.23242C5.56891 5.53412 5.13371 6.10547 4.99936 6.73397C4.96531 6.89312 4.95251 8.73467 4.96161 12.1539L4.97541 17.3327L5.18781 17.7613C5.51596 18.4235 6.05221 18.8494 6.74036 18.9943C6.91436 19.0309 7.83586 19.0501 9.42486 19.0501H11.8444L11.8635 16.9876C11.8846 14.7091 11.8881 14.6808 12.2277 13.9696C12.5812 13.2293 13.2312 12.58 13.974 12.2254C14.6807 11.888 14.7113 11.8843 16.9879 11.8632L19.0504 11.844L19.0498 9.38457C19.0492 6.68897 19.0469 6.66382 18.7481 6.10337C18.468 5.57777 17.8902 5.14037 17.2948 5.00312C17.0151 4.93862 6.95691 4.94097 6.68181 5.00557ZM15.0818 13.4056C14.4926 13.544 13.8387 14.0731 13.5792 14.6216C13.3666 15.0711 13.3474 15.2773 13.3618 16.9628L13.3754 18.5505L15.9752 15.9503L18.5751 13.3501L16.9252 13.3551C16.0178 13.3579 15.1883 13.3806 15.0818 13.4056Z" fill="#858585"/>
</svg>
